<svg xmlns="http://www.w3.org/2000/svg" width="7.148" height="9.018" viewBox="0 0 7.148 9.018">
    <g>
        <path d="M184.9 465.044a1.362 1.362 0 0 0 2.494 0z" transform="translate(-53.013) translate(-129.564 -456.839)"/>
        <path d="M197.323.862a3.064 3.064 0 0 1 1.046.183V1a1.006 1.006 0 0 0-1-1h-.083a1.006 1.006 0 0 0-1 1v.04a3.07 3.07 0 0 1 1.037-.178z" transform="translate(-53.013) translate(-140.736)"/>
        <path d="M59.89 85.121h-6.6a.269.269 0 0 1-.265-.206.257.257 0 0 1 .141-.292 1.4 1.4 0 0 0 .426-.58 6.7 6.7 0 0 0 .445-2.651 2.555 2.555 0 0 1 5.11-.01v.01a6.7 6.7 0 0 0 .445 2.651 1.4 1.4 0 0 0 .426.58.257.257 0 0 1 .141.292.269.269 0 0 1-.269.206zm.127-.5z" transform="translate(-53.013) translate(0 -77.445)"/>
    </g>
</svg>
