<svg xmlns="http://www.w3.org/2000/svg" id="user_1_" width="16.164" height="19.374" viewBox="0 0 16.164 19.374">
    <defs>
        <style>
            .cls-1{fill:#2c7df0}
        </style>
    </defs>
    <path id="Path_252" d="M91.7 9.333A4.515 4.515 0 0 0 95 7.966a4.515 4.515 0 0 0 1.367-3.3A4.516 4.516 0 0 0 95 1.367a4.665 4.665 0 0 0-6.6 0 4.515 4.515 0 0 0-1.367 3.3 4.515 4.515 0 0 0 1.367 3.3 4.516 4.516 0 0 0 3.3 1.366zm0 0" class="cls-1" transform="translate(-83.738)"/>
    <path id="Path_253" d="M16.125 252.856a11.526 11.526 0 0 0-.157-1.224 9.645 9.645 0 0 0-.3-1.231 6.079 6.079 0 0 0-.506-1.148 4.332 4.332 0 0 0-.763-.994 3.364 3.364 0 0 0-1.1-.689 3.788 3.788 0 0 0-1.4-.253 1.42 1.42 0 0 0-.758.322c-.227.148-.493.32-.79.509a4.527 4.527 0 0 1-1.022.45 3.97 3.97 0 0 1-2.5 0 4.517 4.517 0 0 1-1.022-.45c-.294-.188-.56-.359-.791-.51a1.418 1.418 0 0 0-.758-.322 3.783 3.783 0 0 0-1.4.254 3.361 3.361 0 0 0-1.1.689 4.332 4.332 0 0 0-.763.994A6.091 6.091 0 0 0 .5 250.4a9.668 9.668 0 0 0-.3 1.231 11.485 11.485 0 0 0-.157 1.225c-.03.371-.043.756-.043 1.144a3.217 3.217 0 0 0 .955 2.434 3.44 3.44 0 0 0 2.462.9h9.329a3.439 3.439 0 0 0 2.462-.9 3.216 3.216 0 0 0 .956-2.434c0-.39-.013-.775-.039-1.144zm0 0" class="cls-1" transform="translate(0 -237.958)"/>
</svg>
